<svg id="Calque_1" data-name="Calque 1" xmlns="http://www.w3.org/2000/svg" viewBox="0 0 78.76 78.76"><defs><style>.cls-1{fill:#fff;}</style></defs><title>back_arrow</title><path class="cls-1" d="M44.69,83.44A39.38,39.38,0,1,1,84.07,44.06h0A39.42,39.42,0,0,1,44.69,83.44Zm0-74.75A35.38,35.38,0,1,0,80.07,44.07h0A35.4,35.4,0,0,0,44.69,8.69ZM63.63,44.06a2,2,0,0,0-2-2H27.75a2,2,0,0,0,0,4H61.63A2,2,0,0,0,63.63,44.06ZM42.35,58.66a2,2,0,0,0,0-2.83h0L30.58,44.06,42.35,32.29a2,2,0,0,0-2.82-2.83L26.34,42.65a2,2,0,0,0,0,2.82L39.53,58.66A2,2,0,0,0,42.35,58.66Z" transform="translate(-5.31 -4.68)"/></svg>